<?xml version="1.0" encoding="UTF-8" standalone="no"?>
<!-- Created with Inkscape (http://www.inkscape.org/) -->

<svg
   xmlns:dc="http://purl.org/dc/elements/1.1/"
   xmlns:cc="http://creativecommons.org/ns#"
   xmlns:rdf="http://www.w3.org/1999/02/22-rdf-syntax-ns#"
   xmlns:svg="http://www.w3.org/2000/svg"
   xmlns="http://www.w3.org/2000/svg"
   xmlns:sodipodi="http://sodipodi.sourceforge.net/DTD/sodipodi-0.dtd"
   xmlns:inkscape="http://www.inkscape.org/namespaces/inkscape"
   width="973.93567"
   height="800"
   id="svg5162"
   version="1.1"
   inkscape:version="0.48.4 r9939"
   sodipodi:docname="Новый документ 12">
  <defs
     id="defs5164" />
  <sodipodi:namedview
     id="base"
     pagecolor="#ffffff"
     bordercolor="#666666"
     borderopacity="1.0"
     inkscape:pageopacity="0.0"
     inkscape:pageshadow="2"
     inkscape:zoom="0.35"
     inkscape:cx="-938.91536"
     inkscape:cy="258.97325"
     inkscape:document-units="px"
     inkscape:current-layer="layer1"
     showgrid="false"
     fit-margin-top="0"
     fit-margin-left="0"
     fit-margin-right="0"
     fit-margin-bottom="0"
     inkscape:window-width="1920"
     inkscape:window-height="1018"
     inkscape:window-x="-8"
     inkscape:window-y="-8"
     inkscape:window-maximized="1" />
  <metadata
     id="metadata5167">
    <rdf:RDF>
      <cc:Work
         rdf:about="">
        <dc:format>image/svg+xml</dc:format>
        <dc:type
           rdf:resource="http://purl.org/dc/dcmitype/StillImage" />
        <dc:title></dc:title>
      </cc:Work>
    </rdf:RDF>
  </metadata>
  <g
     inkscape:label="Layer 1"
     inkscape:groupmode="layer"
     id="layer1"
     transform="translate(-719.62965,8.6645652)">
    <g
       id="g5225"
       transform="matrix(2.1008202,0,0,2.1008202,-792.18286,-871.11803)">
      <path
         inkscape:connector-curvature="0"
         id="path4911"
         d="m 836.80026,519.41015 c -9.52458,-1.43212 -17.64032,5.19422 -24.82763,10.47496 -14.1259,11.79381 -25.32448,26.5751 -37.08351,40.6173 -16.99099,21.42791 -34.10547,42.90307 -48.483,66.20756 -2.08161,3.88771 -0.5102,0.47616 -1.48844,4.24541 -6.3959,4.57219 -6.5785,-5.96081 -2.74569,-8.9497 16.55588,-25.90392 35.67322,-50.07312 55.09245,-73.87109 13.97688,-16.25594 27.55707,-34.41843 47.75561,-43.26021 4.3365,-1.95793 17.87165,-4.05594 14.26455,3.90151 -0.69122,0.58209 -1.61872,0.74731 -2.48434,0.63426 z"
         style="fill:#000000;fill-opacity:1;fill-rule:nonzero;stroke:none" />
      <path
         inkscape:connector-curvature="0"
         id="path4913"
         d="m 815.84044,540.63148 c -19.02436,13.60829 -28.79754,35.61756 -39.89231,55.42289 -12.77466,23.57671 -25.87593,47.10523 -35.85008,72.04043 -5.22143,12.98904 -8.9355,26.82865 -8.06745,40.94638 2.53149,4.96738 -5.49625,5.63268 -5.69815,2.5636 1.94506,-5.27366 9.65447,2.80095 2.72682,1.58552 -6.06591,0.41614 -1.78875,-10.38078 -2.87406,-14.85785 1.602,-18.55437 9.30959,-35.86633 17.12051,-52.53774 12.19698,-25.56037 26.02945,-50.29595 39.76147,-75.05026 7.73867,-13.40586 16.89825,-26.51209 29.85939,-35.35792 3.4915,-2.28469 6.69824,3.48749 2.91386,5.24495 z"
         style="fill:#000000;fill-opacity:1;fill-rule:nonzero;stroke:none" />
      <path
         inkscape:connector-curvature="0"
         id="path4915"
         d="m 830.69797,545.47061 c -15.77256,28.38152 -29.73878,57.72261 -44.68608,86.54221 -10.24541,20.96197 -21.72207,42.05257 -24.41499,65.60665 -2.67358,7.1308 0.6807,18.67894 -5.71733,22.90646 -6.35637,-4.63992 0.0827,-15.49549 -0.40393,-22.56619 2.09997,-19.13371 9.60523,-37.01916 18.04442,-54.12829 11.68904,-23.95363 24.08726,-47.553 35.9997,-71.39592 5.38417,-10.1025 10.45353,-20.3841 16.18591,-30.29312 2.05755,-3.62998 7.55169,0.0328 4.9923,3.3282 z"
         style="fill:#000000;fill-opacity:1;fill-rule:nonzero;stroke:none" />
      <path
         inkscape:connector-curvature="0"
         id="path4917"
         d="m 828.00101,569.89034 c -6.75235,16.76207 -11.35431,34.4026 -14.55452,52.15419 -1.21575,14.10621 -1.49873,28.78077 4.6991,41.90292 6.08227,17.7644 15.83485,35.06768 32.15944,45.2718 11.69905,8.77666 24.95931,15.29451 39.30133,18.36053 15.59267,3.9108 30.78949,9.18445 46.42431,12.96927 17.16351,4.8801 34.38953,11.06932 52.34968,11.7979 6.76077,-5.53831 6.27282,-19.44605 9.65829,-28.2535 4.96336,-16.7234 7.20966,-34.17005 13.93466,-50.37858 4.4213,-14.13736 6.2869,-28.9434 9.5122,-43.38174 1.8667,-15.44378 5.4723,-32.06684 -1.2638,-46.83277 -4.1001,-10.55769 -8.565,-21.46177 -16.8911,-29.46139 -1.4464,-11.6498 11.6797,1.79295 13.0935,6.93965 7.7241,14.65605 15.6466,30.6182 13.461,47.70854 -1.0782,21.18978 -6.3589,41.85152 -10.7952,62.50042 -5.0148,13.81843 -9.2826,27.88918 -11.942,42.35809 -4.2228,13.03418 -5.9052,26.84757 -11.0696,39.54442 -7.09784,10.6894 -21.93712,2.66149 -32.03418,1.48107 -17.98204,-4.21636 -35.47296,-10.30822 -53.42324,-14.6848 -18.80364,-6.71082 -39.67391,-8.58305 -56.2213,-20.6803 -15.14248,-9.07272 -28.58492,-21.62335 -35.61778,-38.10049 -6.61038,-14.79122 -13.4205,-30.44209 -11.92245,-47.02496 -0.32712,-18.78564 5.97663,-36.77384 11.09078,-54.60637 0.99187,-3.71595 7.64802,-23.00259 10.05088,-9.5839 z"
         style="fill:#000000;fill-opacity:1;fill-rule:nonzero;stroke:none" />
      <path
         inkscape:connector-curvature="0"
         id="path4919"
         d="m 817.45457,671.24717 c -7.74375,6.82578 -14.12958,15.10791 -18.48166,24.48569 -5.75746,12.19998 -11.4297,24.44031 -17.46739,36.50677 -5.66969,11.33131 -9.59681,23.47697 -11.55439,35.99933 -0.95644,6.70537 -2.70004,13.42784 -2.3488,20.23289 -1.10143,-2.3939 -2.84827,-2.69828 -5.07993,-1.81319 1.63493,-4.53501 8.5465,0.36661 4.67394,3.10049 -2.13196,1.87134 -4.51961,2.62079 -5.63663,-0.86809 -0.2336,-9.10362 1.98481,-18.07243 3.48844,-27.00271 2.7698,-16.17987 10.2444,-30.92109 17.52367,-45.44748 7.91851,-15.69365 13.52122,-33.29626 26.68689,-45.6194 1.82478,-3.26119 8.79846,-7.79243 9.17541,-1.33693 -0.12199,0.67522 -0.49726,1.28442 -0.97955,1.76263 z"
         style="fill:#000000;fill-opacity:1;fill-rule:nonzero;stroke:none" />
      <path
         inkscape:connector-curvature="0"
         d="m 1030.0152,599.97549 c 5.7795,3.01323 11.6969,5.73745 17.6363,8.41905 7.8972,3.48212 15.9816,6.52316 23.8035,10.17487 5.9283,2.59683 11.6126,5.65998 17.0534,9.15643 7.3176,4.96974 13.8261,10.95648 20.2398,17.01323 8.1733,7.74554 15.6016,16.20728 22.8962,24.76927 7.4482,8.75288 14.3115,17.97034 20.744,27.48818 5.7449,9.06626 11.3063,18.25003 16.4774,27.65594 3.9982,7.20972 7.3241,14.75194 10.8467,22.19597 1.0871,2.26495 1.9959,4.60758 3.1186,6.85517 1.8888,3.79905 -3.4839,6.47009 -5.3726,2.67104 l 0,0 c -1.1322,-2.28641 -2.082,-4.65237 -3.1695,-6.96005 -3.4701,-7.33479 -6.7447,-14.76705 -10.6813,-21.87209 -5.0809,-9.24655 -10.5514,-18.27094 -16.191,-27.1871 -6.3047,-9.3352 -13.0376,-18.37177 -20.3396,-26.95605 -7.1537,-8.39738 -14.4339,-16.70062 -22.4487,-24.29825 -6.1442,-5.80365 -12.3681,-11.55137 -19.3673,-16.32995 -5.2098,-3.35872 -10.6666,-6.27668 -16.3473,-8.76645 -7.7935,-3.64937 -15.8655,-6.65444 -23.7313,-10.14171 -6.0115,-2.71429 -11.9992,-5.47473 -17.8505,-8.52093 -3.7948,-1.89737 -1.1115,-7.26393 2.6832,-5.36657 z"
         id="path4921"
         style="fill:#000000;fill-opacity:1;fill-rule:nonzero;stroke:none" />
      <path
         inkscape:connector-curvature="0"
         id="path4923"
         d="m 992.80354,548.26273 c 8.50316,5.50238 16.82976,11.29317 25.63026,16.33125 15.8169,9.50671 32.5507,17.63843 47.0036,29.25487 7.0347,5.79418 14.4226,11.15014 21.4037,17.00596 4.8742,2.04539 0.4603,9.41609 -3.1711,5.27667 -5.9701,-5.44013 -12.7777,-9.93292 -18.9178,-15.20359 -10.6084,-8.69079 -22.3269,-15.84889 -34.3126,-22.45467 -14.0814,-7.9001 -27.9141,-16.28541 -41.17757,-25.48097 -2.31605,-2.30751 0.62312,-6.29458 3.54151,-4.72952 z"
         style="fill:#000000;fill-opacity:1;fill-rule:nonzero;stroke:none" />
      <path
         inkscape:connector-curvature="0"
         id="path4925"
         d="m 987.42101,531.15866 c 20.50459,14.7314 42.52929,27.18037 63.74169,40.84312 14.9665,9.60277 30.0388,19.12451 44.1771,29.92739 3.0596,2.31267 8.6236,8.04804 2.0169,9.58823 -4.2924,-2.48156 -7.3378,-7.07247 -11.8908,-9.52128 -30.6477,-21.83184 -63.4737,-40.33368 -94.78884,-61.14946 -3.45085,-2.0029 -13.02339,-7.85601 -5.10012,-10.50396 0.68348,0.0604 1.32415,0.37892 1.84407,0.81596 z"
         style="fill:#000000;fill-opacity:1;fill-rule:nonzero;stroke:none" />
      <path
         inkscape:connector-curvature="0"
         id="path4927"
         d="m 977.07255,512.421 c 13.92893,-2.43228 26.49815,5.89036 38.54785,11.51994 25.0338,13.3958 50.1668,26.62269 75.8499,38.74328 13.5346,6.29314 25.9664,14.62706 37.4901,24.07575 3.9597,5.2404 14.9939,6.11088 14.9904,13.07982 -6.6412,3.52911 -13.7744,-6.02573 -19.6907,-9.13027 -11.4257,-9.46903 -24.0106,-17.42619 -37.4818,-23.64968 -25.9071,-12.14189 -51.1025,-25.70504 -76.3967,-39.05175 -10.0921,-4.56691 -20.53211,-11.57595 -32.13235,-9.7036 -4.0217,1.11188 -5.31668,-5.36303 -1.1767,-5.88349 z"
         style="fill:#000000;fill-opacity:1;fill-rule:nonzero;stroke:none" />
      <path
         inkscape:connector-curvature="0"
         id="path4929"
         d="m 971.96995,491.34115 c 18.93606,2.10346 38.19395,3.19165 56.35425,9.44359 21.7294,7.00638 43.7402,13.68033 64.3177,23.68813 16.0884,8.84508 30.5102,20.35761 45.6728,30.64808 9.2317,7.00478 18.8252,13.81056 26.5922,22.47945 2.7555,6.86911 -5.9696,4.95684 -7.7456,0.49934 -17.8302,-16.35715 -38.4807,-29.19672 -58.2301,-43.044 -18.8873,-11.92726 -40.714,-17.80682 -61.6039,-25.16333 -16.6455,-5.73507 -33.8418,-9.9428 -51.46352,-11.01703 -5.03147,-1.80014 -19.28154,1.5457 -16.34992,-6.79815 l 1.04737,-0.59477 1.40872,-0.14131 0,0 z"
         style="fill:#000000;fill-opacity:1;fill-rule:nonzero;stroke:none" />
      <path
         sodipodi:nodetypes="ccccccccccccccccccccccccc"
         inkscape:connector-curvature="0"
         id="path4931"
         d="m 811.85303,435.95098 c -2.57224,5.83372 5.16037,10.54951 6.38959,16.21595 4.4679,10.50747 6.96906,21.72472 10.66511,32.50997 1.8196,7.74151 3.80546,15.42404 6.13042,23.02981 0.50372,3.89655 2.36985,14.75224 7.46879,8.32164 -0.65123,-6.08637 9.29312,-0.67252 13.63424,-2.07074 13.7433,0.58178 27.17795,-2.71658 40.785,-3.84928 11.10559,-0.75683 22.30602,-1.93721 32.75224,-6.04986 8.48707,-3.00413 16.88163,-6.9835 23.70083,-12.90479 3.93707,-5.70641 -1.77273,-12.08813 -2.72154,-18.0093 -5.28025,-17.64443 -9.44078,-35.67174 -11.12846,-54.04048 1.00287,-8.40456 -7.71485,-8.77891 -13.82582,-8.5186 -41.26083,0.14619 -81.72262,2.17108 -113.8504,25.36568 z m 121.98628,-14.15565 c 2.10421,22.39065 7.94774,44.25709 15.14932,65.48771 -11.42131,8.36242 -25.45674,13.67704 -39.57956,15.62492 -11.75754,1.12766 -23.52756,2.06769 -35.17582,4.10306 -11.01588,1.41451 -22.16243,1.13099 -33.18602,0.0118 -2.18275,-7.68221 -4.46177,-15.32211 -6.13863,-23.13812 -3.41848,-10.51814 -6.2461,-21.24 -10.03553,-31.63453 -1.1939,-4.62022 -6.54234,-10.00984 -6.32378,-13.71474 14.00654,-21.19625 116.59994,-26.71271 115.29002,-16.7401 z m -0.10463,-4.83503 0.5,0.125 z"
         style="fill:#000000;fill-opacity:1;fill-rule:nonzero;stroke:none" />
      <path
         inkscape:connector-curvature="0"
         id="path4937"
         d="m 857.32321,517.54255 c 0.46321,2.88191 1.65917,6.09043 4.53192,7.33881 2.75732,1.45522 5.77667,2.45824 8.9129,2.56587 2.08435,0.13134 4.19307,0.25696 6.27251,0.15253 2.31097,-0.70504 3.84127,-2.86095 4.81899,-4.95232 1.13558,-3.00029 1.48899,-6.22698 1.8067,-9.39565 0.15614,-1.99097 2.54296,-3.1848 4.25559,-2.23263 1.35588,0.57328 1.91166,2.14324 1.61694,3.52068 -0.27248,3.70669 -0.94437,7.43598 -2.32292,10.89655 -1.65192,3.44458 -4.48788,6.55102 -8.16128,7.82532 -2.20572,0.73498 -4.5475,0.25112 -6.81843,0.28111 -3.66893,-0.10248 -7.3722,-0.65279 -10.72942,-2.20637 -3.46799,-1.30044 -6.68605,-3.62582 -8.3124,-7.03884 -1.09511,-2.31441 -1.84119,-4.88303 -1.83788,-7.44953 0.29855,-2.13312 3.08604,-3.27099 4.76835,-1.91042 0.79052,0.60566 1.24298,1.61314 1.19843,2.60489 z"
         style="fill:#000000;fill-opacity:1;fill-rule:nonzero;stroke:none" />
      <path
         inkscape:connector-curvature="0"
         id="path4939"
         d="m 937.85935,515.24646 c 2.51364,-1.80707 5.16817,-3.49753 7.16032,-5.91156 1.46054,-1.64506 2.81249,-3.51828 3.15018,-5.74621 0.50767,-2.65167 0.6438,-5.36772 0.62767,-8.06251 0.0501,-1.26218 -1.00367,-2.33344 -0.65886,-3.62497 0.35188,-2.19397 3.43146,-3.18798 4.973,-1.57755 0.95064,1.03976 1.36969,2.48183 1.5815,3.84822 0.27486,3.36667 -0.0154,6.76796 -0.54978,10.09541 -0.40053,2.44928 -1.34419,4.79309 -2.84685,6.77583 -2.26611,3.32035 -5.37927,5.92908 -8.67222,8.18219 -1.11932,0.82272 -2.42356,1.9107 -3.91739,1.43942 -2.00664,-0.4912 -2.93393,-3.24422 -1.5184,-4.78495 0.19635,-0.23777 0.42442,-0.4485 0.67083,-0.63332 z"
         style="fill:#000000;fill-opacity:1;fill-rule:nonzero;stroke:none" />
      <path
         inkscape:connector-curvature="0"
         id="path4941"
         d="m 892.70564,512.44818 c 3.50187,11.12663 9.03569,21.46095 13.14819,32.35412 3.24288,7.88539 6.77239,15.63894 10.94632,23.07928 5.19317,9.38851 7.93011,19.79037 11.24747,29.9189 2.51659,5.50524 4.82748,11.74082 9.92789,15.37411 4.3494,2.26737 8.76246,-0.0897 12.04835,-3.00568 4.92896,-4.89576 6.0057,-12.06283 5.85775,-18.72081 0.12334,-14.77668 -5.03236,-28.91944 -9.70693,-42.72661 -3.22115,-8.51773 -5.79988,-17.28361 -9.92827,-25.4363 -2.96769,-6.48973 -6.64151,-12.67275 -10.27808,-18.77887 -4.03244,-3.33635 4.08057,-8.06949 5.81826,-2.18323 5.00226,8.74473 9.92086,17.55548 13.69061,26.92306 2.96292,7.75291 5.60299,15.6323 8.46161,23.42629 5.1049,15.64067 10.04233,32.17605 7.12215,48.7736 -1.21415,6.33751 -4.9361,12.3939 -10.53263,15.74664 -5.78797,4.67122 -15.28594,3.46017 -19.79312,-2.45336 -7.50088,-8.95251 -10.02177,-20.63617 -13.66419,-31.44131 -3.90565,-11.19615 -10.82433,-21.01182 -14.9987,-32.09876 -3.79494,-9.01713 -7.49959,-18.06546 -11.48837,-27.00185 -1.21099,-3.94788 -3.93293,-7.90787 -3.46504,-12.08485 1.06956,-2.44459 4.84129,-2.1829 5.58673,0.33563 z"
         style="fill:#000000;fill-opacity:1;fill-rule:nonzero;stroke:none" />
      <path
         inkscape:connector-curvature="0"
         id="path4943"
         d="m 905.62854,569.53835 c -4.69529,0.92778 -9.14777,3.21752 -14.06399,2.9575 -6.46041,-0.0345 -12.92075,0.0829 -19.32722,1.01977 -7.42402,0.86829 -14.93418,1.78093 -22.04752,4.16825 -3.5815,1.71694 -4.67836,5.90544 -7.04742,8.81373 -1.60993,2.94738 -3.16255,5.99601 -4.28731,9.13931 -0.98252,4.8222 1.06293,9.72437 4.50911,13.08789 3.85747,5.19722 9.80567,8.21493 15.84347,10.11647 4.70602,0.68627 9.5942,1.91875 14.23488,0.12154 5.4986,-1.10375 9.92888,-4.71899 15.06135,-6.70741 5.3538,-1.22184 10.47764,-3.23424 15.2858,-5.88482 5.53846,-2.34493 11.13523,-5.48646 17.36268,-5.00366 5.51211,-0.6505 3.94003,7.90943 -1.12011,6.00768 -4.91034,-0.10404 -9.20183,2.68328 -13.63585,4.39945 -5.18276,2.85695 -10.72912,4.96432 -16.47809,6.33855 -5.04568,2.58235 -9.9573,5.61536 -15.57779,6.82584 -5.95775,1.88285 -12.30339,0.63729 -18.20693,-0.76932 -6.87026,-2.32385 -13.36612,-6.13885 -17.75197,-12.0416 -5.93769,-5.97981 -7.83317,-16.15152 -3.04345,-23.35288 1.78922,-4.72339 4.9394,-8.75082 7.66132,-12.95367 4.17098,-5.10841 11.30195,-5.2574 17.21399,-6.74989 10.08905,-1.50916 20.25595,-2.86186 30.47934,-2.55222 4.99878,0.36782 9.45663,-2.2347 14.2731,-2.94379 4.10366,-0.75702 4.83222,5.80115 0.66261,5.96328 z"
         style="fill:#000000;fill-opacity:1;fill-rule:nonzero;stroke:none" />
      <path
         inkscape:connector-curvature="0"
         id="path4945"
         d="m 958.2338,601.45576 c 6.90017,0.58107 13.62148,2.433 20.11476,4.77391 2.87956,1.00987 5.64341,3.03092 8.82333,2.65557 2.14011,-0.90502 4.38213,-2.24147 5.65151,-3.8704 2.22634,-3.97254 1.30408,-8.75041 0.3192,-12.94883 -0.97179,-4.17379 -3.41251,-7.8133 -6.48554,-10.74352 -2.97388,-3.38288 -7.66991,-3.95415 -11.6593,-5.49365 -6.64212,-1.94186 -13.46598,-3.49077 -19.76019,-6.42686 -2.34346,-1.34409 -1.31129,-5.32988 1.34932,-5.45236 2.71309,0.28969 5.14291,1.89011 7.79379,2.55749 5.65865,1.88424 11.52212,3.08011 17.11968,5.16145 4.15593,1.11032 7.93629,3.43868 10.67702,6.76854 4.78003,4.74458 7.21211,11.37328 7.83962,17.98647 0.5862,4.846 -0.2109,10.39658 -3.89649,13.9065 -3.13806,2.41558 -6.79494,5.23256 -11.01844,4.51938 -4.43365,-0.40243 -8.15314,-3.19261 -12.43015,-4.22502 -4.91746,-1.55822 -9.94505,-2.79939 -15.10071,-3.20532 -2.38696,-0.0175 -3.73353,-3.09076 -2.20888,-4.88219 0.65953,-0.87272 1.81402,-1.22072 2.87147,-1.08116 z"
         style="fill:#000000;fill-opacity:1;fill-rule:nonzero;stroke:none" />
      <path
         inkscape:connector-curvature="0"
         id="path4947"
         d="m 867.32843,572.67905 c -1.72646,-0.12389 -3.28917,1.46315 -3.10338,3.19451 0.6493,4.6881 1.05943,9.42179 2.08785,14.0481 0.41017,0.004 -0.89388,1.27407 -1.42462,1.37585 -2.6953,1.35559 -5.79723,0.96505 -8.70537,0.92342 -1.49935,-0.14302 -3.06321,0.005 -4.50907,-0.4541 -1.20122,-0.87195 -1.09152,-2.711 -1.40293,-4.05273 -0.32152,-2.45931 -0.16645,-4.94279 -0.0982,-7.40873 -0.0783,-2.04949 -2.56139,-3.3573 -4.33732,-2.38264 -1.50753,0.6968 -1.73075,2.49417 -1.71643,3.95834 -0.0959,3.44765 -0.11594,7.00447 0.97038,10.3164 0.72039,2.13069 2.05558,4.23758 4.26655,5.03501 3.10188,1.13814 6.47788,0.95332 9.72814,1.06067 3.68534,0.15347 7.53905,-0.63131 10.48626,-2.96063 1.78726,-1.32644 2.93276,-3.54895 2.6705,-5.79958 -0.21066,-2.24773 -0.85506,-4.43462 -1.08456,-6.68515 -0.41542,-2.67984 -0.56596,-5.40417 -1.09937,-8.06247 -0.34248,-1.20055 -1.47369,-2.09289 -2.72839,-2.10627 z"
         style="fill:#000000;fill-opacity:1;fill-rule:nonzero;stroke:none" />
      <path
         inkscape:connector-curvature="0"
         id="path4949"
         d="m 884.64093,569.92905 c -1.53669,-0.061 -2.93163,1.2312 -2.98279,2.77122 -0.13813,3.65598 0.0521,7.35034 0.84204,10.92971 0.32735,1.41506 1.11903,2.75676 2.40078,3.49882 2.15931,1.2586 4.77304,1.08174 7.18522,1.11125 2.19526,-0.0756 4.43303,0.11243 6.57488,-0.4838 2.03265,-0.41897 3.65592,-2.17162 4.05273,-4.19443 0.66709,-2.95889 0.53812,-6.02148 0.58427,-9.03457 0.13866,-1.35766 -0.428,-2.90192 -1.77443,-3.43471 -1.55749,-0.72515 -3.65708,0.13747 -4.08028,1.84889 -0.28621,1.28857 -0.0796,2.62683 -0.15563,3.93662 -0.0214,1.66399 -0.0616,3.33481 -0.29854,4.98292 -0.35067,0.39806 -1.49251,0.30587 -2.16344,0.33467 -2.16495,0.0355 -4.3382,0.11295 -6.49731,-0.079 -0.65322,-3.02278 -0.76036,-6.14309 -0.69185,-9.22689 0.003,-1.64044 -1.34567,-3.00352 -2.99565,-2.96071 z m 3.71875,12.34375 c 0.3936,0.3586 0.0566,0.79082 0,0 z"
         style="fill:#000000;fill-opacity:1;fill-rule:nonzero;stroke:none" />
      <path
         inkscape:connector-curvature="0"
         id="path4951"
         d="m 894.45343,595.80405 c -1.69105,0.19687 -3.14983,1.20478 -4.82547,1.48876 -2.68906,0.77436 -5.50404,0.85556 -8.23125,1.4211 -1.68773,0.3 -3.38452,1.42464 -3.65314,3.23322 -0.34571,1.79959 0.19207,3.61895 0.5343,5.37984 1.0532,3.85807 2.12377,7.72238 3.50068,11.47953 0.6503,1.67253 2.88405,2.31724 4.35619,1.3087 1.42626,-0.81677 1.67419,-2.73498 0.99583,-4.12051 -1.16535,-3.44134 -2.22289,-6.92433 -3.10961,-10.44745 -0.23539,-0.73992 -0.37991,-1.48679 0.671,-1.29522 3.33092,-0.37655 6.66389,-0.99404 9.79272,-2.22922 1.1097,1.79171 1.94117,3.75266 3.05806,5.54194 0.98738,1.49806 3.30738,1.65162 4.52875,0.35217 1.15413,-1.04279 1.07126,-2.83857 0.24768,-4.05145 -1.34001,-2.38848 -2.27885,-5.08812 -4.27193,-7.0359 -1.00418,-0.79775 -2.32424,-1.14025 -3.59381,-1.02551 z m 1.09375,5.875 c -0.40969,0.18918 0.0603,0.64221 -0.625,0.1875 0.20404,-0.0735 0.40468,-0.17337 0.625,-0.1875 z"
         style="fill:#000000;fill-opacity:1;fill-rule:nonzero;stroke:none" />
      <path
         inkscape:connector-curvature="0"
         id="path4953"
         d="m 970.45343,583.5853 c -2.1367,0.071 -3.86086,1.98548 -3.9839,4.07009 -0.2146,3.50373 -0.6407,6.99007 -0.98,10.48294 -0.15891,1.50857 -0.49166,2.99103 -0.86431,4.45713 -0.32543,1.70314 1.13342,3.36591 2.83529,3.4017 1.55818,0.1409 2.87819,-1.16734 3.14379,-2.63853 0.95062,-3.53224 1.06696,-7.21111 1.4638,-10.82966 0.16496,-0.74225 -0.0416,-2.03249 0.35099,-2.42413 1.05219,0.30183 2.1063,0.6348 3.17968,0.81825 1.20364,-0.29338 0.88555,0.89757 0.94288,1.69828 0.0902,3.90739 -0.002,7.81707 0.0531,11.7242 0.047,1.5944 1.52835,2.92515 3.11745,2.79355 1.57086,-0.01 2.88133,-1.42846 2.8614,-2.9831 -0.0238,-4.34237 0.0953,-8.68813 -0.0726,-13.02821 -0.1159,-1.90068 -0.68825,-4.01521 -2.42738,-5.06013 -1.42464,-1.15936 -3.38516,-0.80463 -5.01344,-1.45962 -1.507,-0.44116 -3.00156,-1.13811 -4.60682,-1.02276 z m 6.34375,7.4375 c 0.57747,0.0901 0.56623,0.34403 0,0 z"
         style="fill:#000000;fill-opacity:1;fill-rule:nonzero;stroke:none" />
      <path
         inkscape:connector-curvature="0"
         id="path4955"
         d="m 834.04718,606.1478 c -4.59212,0.74338 -2.4461,6.0214 0.51342,7.0195 2.76563,3.09873 5.95133,6.11831 9.17408,8.76175 1.99481,2.56414 4.50139,6.57418 4.06743,10.41263 0.45922,4.98705 5.60353,6.94895 8.80757,9.89992 2.65668,6.983 4.71965,14.35968 9.18015,20.48573 1.38923,3.15032 0.76872,7.76575 5.48561,5.93436 4.9077,-0.20338 0.15392,-6.65538 -0.21735,-9.64296 -2.90228,-7.66265 -5.14622,-15.66353 -9.38189,-22.73448 -0.63101,-3.23998 -4.79977,-8.3652 -3.21544,-10.39447 3.45644,1.83426 10.04148,0.49739 8.03095,6.31083 -0.52805,4.36717 0.32314,8.8544 3.44493,12.11399 2.14192,3.15089 5.56927,5.62586 6.05746,9.64001 0.96199,5.20408 10.20066,1.24936 5.39526,-3.00842 -1.20293,-5.63163 -6.87754,-8.77687 -8.90468,-13.98589 0.83732,-3.16436 -2.27114,-10.56228 3.35683,-8.52973 3.57552,0.56126 10.99328,-0.35775 8.79438,-5.62911 -1.83071,-2.97664 -6.53157,-2.2327 -9.63602,-3.12127 -6.60945,-0.92061 -13.30285,-0.54529 -19.95269,-0.62614 -3.99411,-3.7256 -7.49464,-8.62406 -13.16469,-9.8277 -2.69864,-0.78039 -5.11198,-2.57752 -7.83531,-3.07855 z m 33.1875,21.8125 c 1.19162,0.10175 0.13296,0.2327 0,0 z"
         style="fill:#17f1e1;fill-opacity:1;fill-rule:nonzero;stroke:none" />
      <path
         id="path4962"
         d="m 994.23468,626.8353 c -1.57796,0 -2.84375,1.26579 -2.84375,2.84375 0,1.57796 1.26579,2.875 2.84375,2.875 1.57796,0 2.875,-1.29704 2.875,-2.875 0,-1.57796 -1.29704,-2.84375 -2.875,-2.84375 z m -85.875,10.15625 c -1.57796,0 -2.875,1.29704 -2.875,2.875 0,1.57796 1.29704,2.84375 2.875,2.84375 1.57795,0 2.84375,-1.26579 2.84375,-2.84375 0,-1.57796 -1.2658,-2.875 -2.84375,-2.875 z m -55.1875,11.96875 c -1.57796,0 -2.84375,1.29704 -2.84375,2.875 0,1.57796 1.26579,2.84375 2.84375,2.84375 1.57795,0 2.84375,-1.26579 2.84375,-2.84375 0,-1.57796 -1.2658,-2.875 -2.84375,-2.875 z m 93.75,1.78125 c -1.57796,0 -2.84375,1.29704 -2.84375,2.875 0,1.57796 1.26579,2.84375 2.84375,2.84375 1.57796,0 2.84375,-1.26579 2.84375,-2.84375 0,-1.57796 -1.26579,-2.875 -2.84375,-2.875 z m -16.96875,13.21875 c -1.57796,0 -2.84375,1.29704 -2.84375,2.875 0,1.57796 1.26579,2.84375 2.84375,2.84375 1.57796,0 2.875,-1.26579 2.875,-2.84375 0,-1.57796 -1.29704,-2.875 -2.875,-2.875 z m 69.28125,0.71875 c -1.57796,0 -2.84375,1.29704 -2.84375,2.875 0,1.57796 1.26579,2.84375 2.84375,2.84375 1.57792,0 2.87502,-1.26579 2.87502,-2.84375 0,-1.57796 -1.2971,-2.875 -2.87502,-2.875 z m -110.34375,8.5625 c -1.57796,0 -2.875,1.29704 -2.875,2.875 0,1.57796 1.29704,2.84375 2.875,2.84375 1.57795,0 2.84375,-1.26579 2.84375,-2.84375 0,-1.57796 -1.2658,-2.875 -2.84375,-2.875 z m 75.875,0.71875 c -1.57796,0 -2.84375,1.29704 -2.84375,2.875 0,1.57796 1.26579,2.84375 2.84375,2.84375 1.57796,0 2.875,-1.26579 2.875,-2.84375 0,-1.57796 -1.29704,-2.875 -2.875,-2.875 z m -116.25,4.125 c -1.57796,0 -2.84375,1.26579 -2.84375,2.84375 0,1.57796 1.26579,2.875 2.84375,2.875 1.57795,0 2.875,-1.29704 2.875,-2.875 0,-1.57796 -1.29705,-2.84375 -2.875,-2.84375 z m 81.25,9.625 c -1.57796,0 -2.84375,1.29704 -2.84375,2.875 0,1.57796 1.26579,2.84375 2.84375,2.84375 1.57796,0 2.875,-1.26579 2.875,-2.84375 0,-1.57796 -1.29704,-2.875 -2.875,-2.875 z m 38.21875,25.71875 c -1.57796,0 -2.84375,1.29704 -2.84375,2.875 0,1.57796 1.26579,2.84375 2.84375,2.84375 1.57796,0 2.875,-1.26579 2.875,-2.84375 0,-1.57796 -1.29704,-2.875 -2.875,-2.875 z m -61.0625,0.53125 c -1.57796,0 -2.84375,1.29704 -2.84375,2.875 0,1.57796 1.26579,2.84375 2.84375,2.84375 1.57795,0 2.84375,-1.26579 2.84375,-2.84375 0,-1.57796 -1.2658,-2.875 -2.84375,-2.875 z"
         style="color:#000000;fill:#000000;stroke:none;stroke-width:0.30000001;marker:none;visibility:visible;display:inline;overflow:visible;enable-background:accumulate"
         inkscape:connector-curvature="0" />
      <path
         id="path5125"
         d="m 945.73468,497.2103 c -1.57796,0 -2.84375,1.29704 -2.84375,2.875 0,1.57796 1.26579,2.84375 2.84375,2.84375 1.57796,0 2.875,-1.26579 2.875,-2.84375 0,-1.57796 -1.29704,-2.875 -2.875,-2.875 z"
         style="color:#000000;fill:#000000;stroke:none;stroke-width:0.30000001;marker:none;visibility:visible;display:inline;overflow:visible;enable-background:accumulate"
         inkscape:connector-curvature="0" />
      <path
         inkscape:connector-curvature="0"
         id="path4962-1"
         d="m 868.77486,516.31744 c -1.57796,0 -2.84375,1.26579 -2.84375,2.84375 0,1.57796 1.26579,2.84375 2.84375,2.84375 1.57796,0 2.875,-1.26579 2.875,-2.84375 0,-1.57796 -1.29704,-2.84375 -2.875,-2.84375 z"
         style="color:#000000;fill:#000000;stroke:none;stroke-width:0.30000001;marker:none;visibility:visible;display:inline;overflow:visible;enable-background:accumulate" />
      <path
         inkscape:connector-curvature="0"
         id="path5083"
         d="m 893.54718,427.2103 c -4.72158,0.47243 -9.5016,0.7183 -14.15625,1.65625 0.72917,6.875 1.45833,13.75 2.1875,20.625 -8.42708,1.28125 -16.85417,2.5625 -25.28125,3.84375 0.0307,5.33029 1.5503,10.5653 1.20075,15.92532 -0.20594,2.6413 2.30275,4.86732 4.78477,3.77365 7.61941,-1.29549 15.23882,-2.59098 22.85823,-3.88647 1.875,7.44792 3.75,14.89583 5.625,22.34375 6.09281,0.25675 11.99198,-1.80435 17.98769,-2.55573 2.06568,-0.31169 0.62527,-2.42022 0.6316,-3.75217 -1.06059,-5.82445 -2.12119,-11.6489 -3.18179,-17.47335 8.47917,-1.14583 16.95833,-2.29167 25.4375,-3.4375 -3.34895,-5.0604 -4.76461,-11.08573 -7.10376,-16.6304 -0.0438,-2.22628 -1.02265,-5.45194 -3.77227,-4.33445 -7.17674,0.8112 -14.35348,1.6224 -21.53022,2.4336 -0.69792,-5.34375 -1.39583,-10.6875 -2.09375,-16.03125 -0.99329,-0.72932 -1.59483,-2.87054 -3.59375,-2.5 z"
         style="fill:#fe0000;fill-opacity:1;fill-rule:nonzero;stroke:none" />
    </g>
  </g>
</svg>
